<svg width="124" height="55" viewBox="0 0 124 55" fill="none" xmlns="http://www.w3.org/2000/svg">
<path d="M16.0142 47.1791H16.5441V47.9671H14.5651C13.4057 47.8538 12.7491 47.007 12.7491 46.1058C12.7491 44.8604 13.8812 43.8958 15.2262 43.8958C15.5206 43.8958 15.7923 43.9411 16.0187 44.0045V47.1836L16.0142 47.1791ZM14.5922 42.8905C14.5922 43.1577 14.3658 43.3932 14.0624 43.3932C13.759 43.3932 13.5461 43.1577 13.5461 42.8905C13.5461 42.6233 13.7726 42.3878 14.0624 42.3878C14.3522 42.3878 14.5922 42.6142 14.5922 42.8905ZM15.1855 44.6385C14.316 44.6566 13.5869 45.1593 13.5869 46.0605C13.5869 46.8123 14.1711 47.2289 14.9319 47.2289C15.0089 47.2289 15.0904 47.2289 15.1855 47.2153V44.6385ZM15.7108 42.8905C15.7108 43.1577 15.4844 43.3932 15.1855 43.3932C14.8866 43.3932 14.6647 43.1577 14.6647 42.8905C14.6647 42.6233 14.8866 42.3878 15.1855 42.3878C15.4844 42.3878 15.7108 42.6142 15.7108 42.8905ZM16.3991 47.9671V47.1791H18.1834V44.0091L19.0348 43.9321V47.2832L18.2921 47.9671H16.3946H16.3991ZM17.6672 49.4932C17.6672 49.6245 17.6264 49.7513 17.5132 49.851C17.4181 49.9506 17.2732 50.0004 17.1418 50.0004C17.0105 50.0004 16.8747 49.9506 16.7705 49.851C16.6663 49.7513 16.6165 49.6245 16.6165 49.5023C16.6165 49.38 16.6709 49.2441 16.775 49.149C16.8792 49.0539 17.015 48.9996 17.1509 48.9996C17.2777 48.9996 17.4136 49.0449 17.5132 49.1445C17.6264 49.2441 17.6672 49.3709 17.6672 49.4932ZM18.8446 49.4932C18.8446 49.6245 18.7903 49.7513 18.6861 49.851C18.5729 49.9506 18.4551 50.0004 18.3193 50.0004C18.1744 50.0004 18.0521 49.9506 17.9434 49.8464C17.8483 49.7513 17.794 49.62 17.794 49.4977C17.794 49.3755 17.8483 49.2487 17.9479 49.149C18.0611 49.0403 18.197 48.9905 18.3238 48.9905C18.4597 48.9905 18.5774 49.0358 18.6861 49.1354C18.7903 49.2441 18.8446 49.3619 18.8446 49.4887V49.4932ZM19.2386 47.9625L19.5103 47.1746H22.1505C22.1278 45.5307 21.1587 44.8242 20.1081 44.7925L20.3255 43.923C22.2094 44.0634 23.0834 45.6439 23.0019 47.2742L22.2682 47.958H19.2386V47.9625ZM24.365 47.9625L23.6178 47.2787V42.1342L24.4691 42.2067V47.1791H25.6692V47.9671H24.3604L24.365 47.9625ZM25.5107 47.9625V47.1746H26.0541V44.0045L26.9101 43.9275V45.2544C27.6165 44.3261 28.4905 43.9366 29.3419 43.9366C31.1036 43.9366 32.3489 45.508 32.1814 47.1746H32.7067V47.9625H25.5107ZM26.9101 47.1746H31.3164C31.2847 45.508 30.3382 44.788 29.3283 44.788C28.169 44.788 26.9418 45.7028 26.9101 47.1746ZM32.5527 47.9625V47.1746H33.7528V44.0045L34.6087 43.9275V47.1746H35.8133V47.9625H32.5527ZM34.106 42.886C34.106 43.1531 33.8796 43.3886 33.5762 43.3886C33.2728 43.3886 33.0599 43.1531 33.0599 42.886C33.0599 42.6188 33.2863 42.3833 33.5762 42.3833C33.866 42.3833 34.106 42.6097 34.106 42.886ZM35.2291 42.886C35.2291 43.1531 35.0117 43.3886 34.6993 43.3886C34.3868 43.3886 34.1785 43.1531 34.1785 42.886C34.1785 42.6188 34.4004 42.3833 34.6993 42.3833C34.9982 42.3833 35.2291 42.6097 35.2291 42.886ZM39.4815 47.2878L38.766 47.9671H35.6593V47.1791H36.5651C36.3296 46.8576 36.2118 46.4998 36.2118 46.1013C36.2118 44.8559 37.3576 43.8913 38.698 43.8913C38.9924 43.8913 39.2686 43.9366 39.486 44V47.2878H39.4815ZM37.9508 42.886C37.9508 43.1531 37.7244 43.3886 37.421 43.3886C37.1175 43.3886 36.9047 43.1531 36.9047 42.886C36.9047 42.6188 37.1311 42.3833 37.421 42.3833C37.7108 42.3833 37.9508 42.6097 37.9508 42.886ZM38.6527 44.634C37.8059 44.6657 37.0587 45.1684 37.0587 46.056C37.0587 46.8077 37.6474 47.2244 38.3991 47.2244C38.4761 47.2244 38.5576 47.2244 38.6527 47.2108V44.634ZM39.0784 42.886C39.0784 43.1531 38.852 43.3886 38.5486 43.3886C38.2452 43.3886 38.0323 43.1531 38.0323 42.886C38.0323 42.6188 38.2542 42.3833 38.5486 42.3833C38.843 42.3833 39.0784 42.6097 39.0784 42.886ZM44.1052 42.1569V47.2787L43.3625 47.9625H40.908C40.8084 47.9625 40.7042 47.9625 40.5955 47.9625C40.4008 47.949 40.1608 47.9263 39.8981 47.8584L39.9842 46.9934C40.2151 47.084 40.5276 47.17 40.9261 47.1746V43.0943L41.782 43.0263C41.782 43.0716 41.782 43.2482 41.782 43.5517C41.782 44.077 41.782 45.1095 41.782 47.1746H43.2538V42.2248L44.1052 42.1569ZM44.5762 42.2021L45.4366 42.1297V47.9625H44.5762V42.2021ZM51.3827 47.1746V44.0045L52.2341 43.9275V47.2787L51.4914 47.9625H47.8911C47.0714 47.9625 46.682 47.5685 46.5099 47.1746C46.4057 46.9436 46.3559 46.6764 46.3605 46.382V44.711L47.1937 44.6249V46.382C47.1937 46.776 47.3794 46.9798 47.5651 47.0749C47.6783 47.1338 47.8005 47.1655 47.9409 47.1746H51.3782H51.3827ZM49.3629 44.4483C49.3629 44.7155 49.141 44.951 48.8421 44.951C48.5432 44.951 48.3168 44.72 48.3168 44.4483C48.3168 44.1766 48.5432 43.9457 48.8421 43.9457C49.141 43.9457 49.3629 44.1811 49.3629 44.4483ZM50.486 44.4483C50.486 44.7155 50.2596 44.951 49.9562 44.951C49.6527 44.951 49.4399 44.72 49.4399 44.4483C49.4399 44.1766 49.6663 43.9457 49.9562 43.9457C50.246 43.9457 50.486 44.1811 50.486 44.4483ZM55.7166 48.0984C55.7166 48.7188 55.5037 49.8691 53.6832 49.9778L53.013 49.2034C53.1579 49.2034 54.8878 49.2034 54.8878 48.0803V47.6999C54.7882 47.7452 54.6342 47.804 54.5029 47.8629L54.2719 47.9625C53.2485 47.8493 52.4424 47.093 52.4424 46.1239C52.4424 44.874 53.57 43.8868 54.9331 43.8868C55.1414 43.8868 55.463 43.9321 55.703 44.0045L55.7166 47.17H56.2645V47.958H55.7166V48.0939V48.0984ZM54.8878 44.6295C53.09 44.4846 52.6552 47.2198 54.6342 47.2198C54.7112 47.2198 54.7927 47.2198 54.8878 47.2063V44.6295ZM56.1015 47.9625V47.1746H57.3106V44.0045L58.162 43.9275V47.1746H58.6919V47.9625H56.097H56.1015ZM57.3695 49.4887C57.3695 49.62 57.3288 49.7468 57.2155 49.8464C57.1204 49.9461 56.9755 49.9959 56.8442 49.9959C56.7129 49.9959 56.577 49.9461 56.4728 49.8464C56.3687 49.7468 56.3189 49.62 56.3189 49.4977C56.3189 49.3755 56.3732 49.2396 56.4774 49.1445C56.5815 49.0494 56.7174 48.9951 56.8532 48.9951C56.98 48.9951 57.1159 49.0403 57.2155 49.14C57.3288 49.2396 57.3695 49.3664 57.3695 49.4887ZM58.5469 49.4887C58.5469 49.62 58.4926 49.7468 58.3884 49.8464C58.2752 49.9461 58.1575 49.9959 58.0216 49.9959C57.8767 49.9959 57.7544 49.9461 57.6458 49.8419C57.5461 49.7468 57.4963 49.6155 57.4963 49.4932C57.4963 49.3709 57.5461 49.2441 57.6503 49.1445C57.7544 49.0358 57.8994 48.986 58.0262 48.986C58.162 48.986 58.2798 49.0313 58.3884 49.1309C58.4926 49.2396 58.5469 49.3573 58.5469 49.4841V49.4887ZM58.5334 47.958V47.17H59.7425V44L60.5939 43.923V47.17H61.1237V47.958H58.5288H58.5334ZM60.6935 49.4887C60.6935 49.62 60.6482 49.7468 60.535 49.8464C60.4218 49.9461 60.2995 49.9959 60.1727 49.9959C60.0278 49.9959 59.901 49.9461 59.7923 49.8419C59.6972 49.7468 59.6429 49.6155 59.6429 49.4932C59.6429 49.3709 59.6972 49.2441 59.7968 49.1445C59.9101 49.0358 60.0459 48.986 60.1818 48.986C60.3086 48.986 60.4309 49.0313 60.535 49.1309C60.6392 49.2305 60.6935 49.3483 60.6935 49.4841V49.4887ZM60.9698 47.958V47.17H62.1608V42.1976L63.0167 42.1252V47.2697L62.274 47.9535H60.9652L60.9698 47.958ZM63.4877 42.1976L64.3481 42.1252V47.958H63.4877V42.1976Z" fill="#999999"/>
<path d="M26.2488 53.7275H26.5024V54.0581H25.574C25.0306 54.0037 24.7181 53.6188 24.7181 53.2157C24.7181 53.1659 24.7181 53.1161 24.7317 53.0663C24.8631 52.396 25.4427 52.2058 25.8865 52.2058C26.0224 52.2058 26.1447 52.224 26.2443 52.2511V53.7275H26.2488ZM25.8911 52.5138C25.3974 52.5093 25.1438 52.781 25.094 53.0753C25.085 53.1161 25.085 53.1569 25.085 53.1931C25.085 53.5508 25.3748 53.7501 25.7507 53.7501C25.7959 53.7501 25.8458 53.7501 25.8911 53.741V52.5138ZM25.5559 51.7258C25.5559 51.8436 25.4563 51.9387 25.325 51.9387C25.1936 51.9387 25.094 51.839 25.094 51.7258C25.094 51.6126 25.1936 51.513 25.325 51.513C25.4563 51.513 25.5559 51.6126 25.5559 51.7258ZM26.0948 51.7258C26.0948 51.8436 25.9952 51.9387 25.8639 51.9387C25.7325 51.9387 25.6329 51.839 25.6329 51.7258C25.6329 51.6126 25.7325 51.513 25.8639 51.513C25.9952 51.513 26.0948 51.6126 26.0948 51.7258Z" fill="#999999"/>
<path d="M26.4209 54.0581V53.7275H27.2768V52.2557L27.6482 52.224V53.7501L27.304 54.0581H26.4209ZM26.9915 54.7826C26.9915 54.837 26.9689 54.8913 26.9236 54.9366C26.8783 54.9774 26.8194 55 26.7605 55C26.7017 55 26.6428 54.9774 26.593 54.9366C26.5477 54.8958 26.5251 54.8415 26.5251 54.7872C26.5251 54.7328 26.5477 54.6785 26.593 54.6332C26.6383 54.5924 26.7017 54.5698 26.7605 54.5698C26.8149 54.5698 26.8783 54.5879 26.9236 54.6332C26.9689 54.6739 26.9915 54.7328 26.9915 54.7826ZM27.5576 54.7826C27.5576 54.837 27.5349 54.8913 27.4897 54.9366C27.4444 54.9774 27.3855 55 27.3266 55C27.2632 55 27.2043 54.9774 27.1591 54.9321C27.1138 54.8913 27.0911 54.837 27.0911 54.7826C27.0911 54.7283 27.1138 54.6739 27.1591 54.6332C27.2043 54.5879 27.2677 54.5653 27.3266 54.5653C27.3855 54.5653 27.4398 54.5879 27.4851 54.6287C27.5304 54.6694 27.5531 54.7238 27.5531 54.7826H27.5576Z" fill="#999999"/>
<path d="M29.369 52.2285V54.1441C29.369 54.4249 29.2694 54.9457 28.4225 54.9955L28.1327 54.674C28.2006 54.674 29.0112 54.674 29.0112 54.135V52.2602L29.369 52.2285Z" fill="#999999"/>
<path d="M30.397 54.0581L30.0483 53.7501V51.3907L30.4197 51.4179V53.7229H30.9948V54.0535H30.397V54.0581Z" fill="#999999"/>
<path d="M31.7602 54.0581H30.9178V53.7275H31.7602V54.0581Z" fill="#999999"/>
<path d="M32.521 54.0581H31.6786V53.7275H32.521V54.0581Z" fill="#999999"/>
<path d="M33.2818 54.0581H32.4395V53.7275H33.2818V54.0581Z" fill="#999999"/>
<path d="M34.0472 54.0581H33.2048V53.7275H34.0472V54.0581Z" fill="#999999"/>
<path d="M36.719 53.7275V54.058H35.7997L34.5453 53.8316C34.4909 53.9539 34.3415 54.058 34.192 54.058H33.9611V53.7275H34.2056C34.4094 53.7275 34.4864 53.3742 34.6222 53.0119C34.7807 52.5998 34.9302 52.1787 35.5189 52.1787C36.0578 52.1832 36.4065 52.7176 36.4065 53.3289C36.4065 53.4648 36.3929 53.5871 36.3567 53.7229H36.7099L36.719 53.7275ZM36.0397 53.7003C36.3386 52.7176 35.2291 51.6579 34.7853 53.4693L36.0397 53.7003Z" fill="#999999"/>
<path d="M36.6329 53.7275H37.4073C37.5341 53.7275 37.7243 53.7456 37.8375 53.7682C37.8602 53.7048 37.8738 53.6369 37.8738 53.569C37.8738 53.4059 37.7877 53.2429 37.4753 53.098C37.2126 52.9802 36.9998 52.9485 36.9998 52.9485L36.9182 52.6496C36.9182 52.6496 37.4481 52.2738 38.1727 52.2738C38.5304 52.2738 38.9425 52.3689 39.3863 52.6315L39.2731 52.944C39.2731 52.944 39.0648 52.9349 38.8791 53.0753C38.5621 53.3154 38.4761 53.4784 38.4761 53.6188C38.4761 53.6731 38.4897 53.7229 38.5033 53.7637C38.6074 53.7456 38.7976 53.732 38.938 53.732H39.6716V54.0626H38.9289C38.7342 54.058 38.535 54.1396 38.535 54.1396L38.313 54.0716C38.2587 53.9946 38.2089 53.8905 38.1772 53.7727C38.15 53.886 38.1138 53.9675 38.0685 54.0535L37.8511 54.1396C37.8104 54.1305 37.5522 54.058 36.9318 54.058H36.6329V53.7275ZM37.516 52.7312C37.8602 52.8716 38.1002 53.0663 38.1908 53.4059C38.2814 53.1116 38.4897 52.8625 38.7704 52.7176C38.5531 52.6451 38.3493 52.6134 38.1636 52.6134C37.9055 52.6134 37.6881 52.6678 37.516 52.7312Z" fill="#999999"/>
<path d="M42.339 53.7275V54.058H41.4197L40.1698 53.8316C40.1154 53.9539 39.966 54.058 39.8165 54.058H39.5856V53.7275H39.8301C40.0339 53.7275 40.1109 53.3742 40.2467 53.0119C40.4052 52.5998 40.5547 52.1787 41.1434 52.1787C41.6823 52.1832 42.031 52.7176 42.031 53.3289C42.031 53.4648 42.0174 53.5871 41.9812 53.7229H42.3344L42.339 53.7275ZM41.6597 53.7003C41.9586 52.7176 40.8491 51.6579 40.4052 53.4693L41.6597 53.7003Z" fill="#999999"/>
<path d="M42.253 54.0581V53.7275H42.8236V51.4224L43.1949 51.3952V53.7546L42.8508 54.0626H42.253V54.0581Z" fill="#999999"/>
<path d="M43.8516 51.4224L44.2274 51.3952V54.0581H43.8516V51.4224Z" fill="#999999"/>
<path d="M50.2867 53.7275H50.5403V54.0581H49.6119C49.0685 54.0037 48.756 53.6188 48.756 53.2157C48.756 53.1659 48.756 53.1161 48.7696 53.0663C48.901 52.396 49.4806 52.2058 49.9244 52.2058C50.0603 52.2058 50.1826 52.224 50.2822 52.2511V53.7275H50.2867ZM49.929 52.5138C49.4353 52.5093 49.1817 52.781 49.1319 53.0753C49.1229 53.1161 49.1229 53.1569 49.1229 53.1931C49.1229 53.5508 49.4127 53.7501 49.7886 53.7501C49.8339 53.7501 49.8837 53.7501 49.929 53.741V52.5138ZM49.5938 51.7258C49.5938 51.8436 49.4942 51.9387 49.3629 51.9387C49.2315 51.9387 49.1319 51.839 49.1319 51.7258C49.1319 51.6126 49.2315 51.513 49.3629 51.513C49.4942 51.513 49.5938 51.6126 49.5938 51.7258ZM50.1327 51.7258C50.1327 51.8436 50.0331 51.9387 49.9018 51.9387C49.7705 51.9387 49.6708 51.839 49.6708 51.7258C49.6708 51.6126 49.7705 51.513 49.9018 51.513C50.0331 51.513 50.1327 51.6126 50.1327 51.7258Z" fill="#999999"/>
<path d="M51.3011 54.0581H50.4588V53.7275H51.3011V54.0581Z" fill="#999999"/>
<path d="M52.0619 54.0581H51.2196V53.7275H52.0619V54.0581Z" fill="#999999"/>
<path d="M52.8227 54.0581H51.9804V53.7275H52.8227V54.0581Z" fill="#999999"/>
<path d="M53.5881 54.0581H52.7458V53.7275H53.5881V54.0581Z" fill="#999999"/>
<path d="M53.7693 53.7275V52.4051L54.1406 52.3779V53.7275H54.761V52.3327L55.1369 52.3055V53.732H55.7618V52.2602L56.1332 52.2285V53.7546L55.789 54.0626H53.5066V53.732H53.7693V53.7275Z" fill="#999999"/>
<path d="M58.7281 53.7275V54.0581H56.7128L56.8351 53.7275H58.1076C58.0986 52.9395 57.6321 52.5998 57.134 52.5863L57.2291 52.224C58.085 52.2964 58.5107 52.9802 58.479 53.7275H58.7281Z" fill="#999999"/>
<path d="M58.642 54.0581V53.7275H59.2217V52.2557L59.593 52.224V53.7275H59.8557V54.0581H58.642ZM59.6202 51.7258C59.6202 51.8436 59.5206 51.9387 59.3847 51.9387C59.2489 51.9387 59.1538 51.8436 59.1538 51.7258C59.1538 51.6081 59.2534 51.513 59.3847 51.513C59.5161 51.513 59.6202 51.6081 59.6202 51.7258Z" fill="#999999"/>
<path d="M62.4279 53.7275V54.0581H62.2785C61.9117 54.0807 61.8256 54.5517 61.8075 54.837C61.6988 54.8958 61.5902 54.923 61.4679 54.923C61.006 54.923 60.4625 54.5426 60.4037 54.0581H59.7697V53.7275H60.3855L60.3765 52.2693C60.4988 52.2376 60.621 52.2194 60.7478 52.2194C62.1608 52.2194 62.3102 54.1667 60.7705 54.0626C60.8384 54.3796 61.1645 54.5924 61.5041 54.6287C61.5177 54.1758 61.7215 53.7365 62.2785 53.732H62.4279V53.7275ZM60.7388 53.7456C61.8347 53.9086 61.7215 52.4232 60.7342 52.5274V53.7456H60.7388Z" fill="#999999"/>
<path d="M62.3328 54.0581V53.7275H62.9125V51.4224L63.2793 51.3952V53.732H63.5374V54.0626H62.3328V54.0581Z" fill="#999999"/>
<path d="M63.4559 54.0581V53.7275H64.0265V51.4224L64.3979 51.3952V53.7546L64.0537 54.0626H63.4559V54.0581Z" fill="#999999"/>
<path d="M30.9948 38.1717C25.8956 38.1717 21.1044 36.1881 17.4996 32.5834C13.8948 28.9786 11.9067 24.1873 11.9067 19.0881C11.9067 13.9889 13.8903 9.19761 17.4996 5.59283C24.9401 -1.84768 37.0496 -1.84768 44.4901 5.59283L45.0109 6.11362L43.9738 7.15068L43.4531 6.62989C36.5831 -0.240019 25.4065 -0.240019 18.5366 6.62989C15.2081 9.95842 13.374 14.3829 13.374 19.0881C13.374 23.7933 15.2081 28.2178 18.5366 31.5463C21.8652 34.8748 26.2896 36.7044 30.9948 36.7044C35.7001 36.7044 40.1245 34.8703 43.4531 31.5463C46.7816 28.2178 48.6111 23.7933 48.6111 19.0881V18.3545H50.0784V19.0881C50.0784 24.1828 48.0949 28.9786 44.4901 32.5834C40.8853 36.1881 36.0941 38.1717 30.9948 38.1717Z" fill="#999999"/>
<path d="M67.6313 38.1717C62.5321 38.1717 57.7408 36.1881 54.136 32.5834C46.6955 25.1429 46.6955 13.0333 54.136 5.59283C61.5766 -1.84768 73.6861 -1.84768 81.1266 5.59283L81.6474 6.11362L80.6103 7.15068L80.0895 6.62989C73.2196 -0.240019 62.043 -0.240019 55.1731 6.62989C48.3032 13.4998 48.3032 24.6764 55.1731 31.5463C58.5016 34.8748 62.9261 36.7044 67.6313 36.7044C72.3365 36.7044 76.761 34.8703 80.0895 31.5463C83.4181 28.2178 85.2476 23.7933 85.2476 19.0881V18.3545H86.7149V19.0881C86.7149 24.1828 84.7314 28.9786 81.1266 32.5834C77.5218 36.1881 72.7305 38.1717 67.6313 38.1717Z" fill="#999999"/>
<path d="M104.268 38.1717C93.7433 38.1717 85.1842 29.6081 85.1842 19.0881C85.1842 8.56814 93.7433 0 104.268 0C114.792 0 123.351 8.56361 123.351 19.0836C123.351 29.6035 114.788 38.1671 104.268 38.1671V38.1717ZM104.268 1.46727C94.5539 1.46727 86.6515 9.3697 86.6515 19.0836C86.6515 28.7974 94.5539 36.6999 104.268 36.6999C113.982 36.6999 121.884 28.7974 121.884 19.0836C121.884 9.3697 113.982 1.46727 104.268 1.46727Z" fill="#999999"/>
<path d="M25.1167 21.0309H6.85282C5.23158 21.0309 3.67373 20.3878 2.52799 19.2375L0.648621 17.3582H18.9125C20.5338 17.3582 22.0916 18.0012 23.2373 19.1515L25.1167 21.0309Z" fill="#3EBF7E"/>
<path d="M73.8446 47.0161V48.1165H69.4156V42.107H73.7857V43.2075H70.9146V44.4665H73.6544V45.5669H70.9146V47.0115H73.8491L73.8446 47.0161Z" fill="#3EBF7E"/>
<path d="M80.248 46.2869V47.6002C79.4963 47.9988 78.7083 48.198 77.8886 48.198C76.8199 48.198 75.973 47.9037 75.339 47.3149C74.705 46.7262 74.3925 46.0016 74.3925 45.1367C74.3925 44.2717 74.7276 43.5426 75.3933 42.9403C76.059 42.338 76.9331 42.0391 78.0064 42.0391C78.8623 42.0391 79.5914 42.2157 80.1846 42.569V43.9049C79.4555 43.4928 78.7672 43.289 78.115 43.289C77.4629 43.289 76.9512 43.4611 76.5481 43.8053C76.1451 44.1494 75.9413 44.5842 75.9413 45.114C75.9413 45.6439 76.1406 46.0877 76.5391 46.4364C76.9376 46.7851 77.4539 46.9572 78.0788 46.9572C78.3868 46.9572 78.6856 46.9164 78.9755 46.8349C79.2608 46.7534 79.691 46.5723 80.2571 46.296L80.248 46.2869Z" fill="#3EBF7E"/>
<path d="M84.274 42.0346C85.2974 42.0346 86.1262 42.3425 86.7602 42.963C87.3942 43.5834 87.7112 44.2989 87.7112 45.1186C87.7112 45.9383 87.3897 46.6719 86.7466 47.2833C86.1035 47.8946 85.2793 48.198 84.274 48.198C83.2686 48.198 82.4263 47.8946 81.7878 47.2878C81.1492 46.6809 80.8277 45.9564 80.8277 45.1186C80.8277 44.2808 81.1447 43.5743 81.7787 42.9584C82.4127 42.3425 83.246 42.0346 84.2694 42.0346H84.274ZM84.274 46.9527C84.84 46.9527 85.2974 46.7851 85.6461 46.4455C85.9948 46.1103 86.1669 45.6665 86.1669 45.1186C86.1669 44.5706 85.9948 44.1268 85.6461 43.7917C85.2974 43.4566 84.84 43.289 84.274 43.289C83.7079 43.289 83.246 43.4566 82.8973 43.7917C82.5486 44.1268 82.3765 44.5706 82.3765 45.1186C82.3765 45.6665 82.5531 46.1103 82.8973 46.4455C83.246 46.7851 83.7034 46.9527 84.274 46.9527Z" fill="#3EBF7E"/>
<path d="M96.542 42.1116V48.121H95.043V45.6892H92.0496V48.121H90.5507V42.1116H92.0496V44.5253H95.043V42.1116H96.542Z" fill="#3EBF7E"/>
<path d="M100.717 42.0346C101.741 42.0346 102.57 42.3425 103.204 42.963C103.838 43.5834 104.155 44.2989 104.155 45.1186C104.155 45.9383 103.833 46.6719 103.19 47.2833C102.547 47.8946 101.723 48.198 100.717 48.198C99.712 48.198 98.8697 47.8946 98.2312 47.2878C97.5926 46.6809 97.2711 45.9564 97.2711 45.1186C97.2711 44.2808 97.5881 43.5743 98.2221 42.9584C98.8561 42.3425 99.6894 42.0346 100.713 42.0346H100.717ZM100.717 46.9527C101.283 46.9527 101.741 46.7851 102.09 46.4455C102.438 46.1103 102.61 45.6665 102.61 45.1186C102.61 44.5706 102.438 44.1268 102.09 43.7917C101.741 43.4566 101.283 43.289 100.717 43.289C100.151 43.289 99.6894 43.4566 99.3407 43.7917C98.992 44.1268 98.8199 44.5706 98.8199 45.1186C98.8199 45.6665 98.9965 46.1103 99.3407 46.4455C99.6894 46.7851 100.147 46.9527 100.717 46.9527Z" fill="#3EBF7E"/>
<path d="M108.117 44.3396L110.046 42.1116H111.346V48.121H109.847V44.3713L108.221 46.2552H107.995L106.374 44.3713V48.121H104.875V42.1116H106.174L108.108 44.3396H108.117Z" fill="#3EBF7E"/>
<path d="M116.78 47.0161V48.1165H112.351V42.107H116.721V43.2075H113.85V44.4665H116.59V45.5669H113.85V47.0115H116.785L116.78 47.0161Z" fill="#3EBF7E"/>
<path d="M121.658 42.4965V43.6694C120.861 43.3117 120.227 43.1305 119.751 43.1305C119.479 43.1305 119.267 43.1758 119.108 43.2664C118.95 43.3569 118.868 43.4747 118.868 43.6241C118.868 43.7373 118.927 43.846 119.04 43.9502C119.153 44.0543 119.434 44.1857 119.878 44.3487C120.322 44.5117 120.679 44.6657 120.947 44.8061C121.214 44.9465 121.445 45.1457 121.635 45.3993C121.83 45.6529 121.925 45.979 121.925 46.3685C121.925 46.9255 121.712 47.3693 121.291 47.6954C120.87 48.0259 120.313 48.189 119.62 48.189C118.873 48.189 118.153 47.9942 117.451 47.6093V46.3141C117.854 46.5858 118.207 46.7806 118.519 46.9028C118.832 47.0251 119.158 47.0885 119.502 47.0885C120.091 47.0885 120.385 46.9028 120.385 46.536C120.385 46.4092 120.326 46.2915 120.209 46.1783C120.091 46.0651 119.81 45.9292 119.357 45.7707C118.909 45.6122 118.556 45.4627 118.288 45.3224C118.026 45.1865 117.799 44.9872 117.609 44.7336C117.419 44.48 117.324 44.1494 117.324 43.7509C117.324 43.2347 117.532 42.818 117.949 42.501C118.365 42.184 118.922 42.0255 119.62 42.0255C120.263 42.0255 120.938 42.1795 121.653 42.492L121.658 42.4965Z" fill="#3EBF7E"/>
<path d="M70.4663 51.6398H70.7018L71.7479 53.9901H71.4037L71.0912 53.2972H70.0949L69.8051 53.9901H69.4609L70.4663 51.6398ZM70.9599 52.9984L70.584 52.1515L70.2353 52.9984H70.9644H70.9599Z" fill="#3EBF7E"/>
<path d="M71.9335 53.9901V51.6534H72.5177C72.7532 51.6534 72.9434 51.7122 73.0793 51.83C73.2197 51.9477 73.2876 52.1062 73.2876 52.3055C73.2876 52.4413 73.2559 52.5591 73.188 52.6587C73.12 52.7583 73.0204 52.8308 72.8936 52.8806C72.9706 52.9304 73.0431 52.9983 73.111 53.0799C73.1789 53.1614 73.2831 53.3108 73.4099 53.5237C73.4914 53.655 73.5548 53.7546 73.6046 53.8226L73.7269 53.9901H73.3284L73.2287 53.8361C73.2287 53.8361 73.2197 53.8226 73.2106 53.809L73.1472 53.7184L73.0431 53.5463L72.9298 53.3652C72.8619 53.2701 72.7985 53.1931 72.7396 53.1342C72.6808 53.0799 72.631 53.0346 72.5857 53.0119C72.5404 52.9848 72.4634 52.9757 72.3502 52.9757H72.2641V53.9946H71.929L71.9335 53.9901ZM72.3683 51.9387H72.2687V52.6768H72.3955C72.563 52.6768 72.6808 52.6632 72.7442 52.6315C72.8076 52.5998 72.8574 52.5591 72.8936 52.5002C72.9298 52.4413 72.948 52.3734 72.948 52.3009C72.948 52.2285 72.9298 52.1606 72.8891 52.1017C72.8483 52.0428 72.794 52.0021 72.7261 51.9749C72.6536 51.9522 72.5359 51.9387 72.3728 51.9387H72.3683Z" fill="#3EBF7E"/>
<path d="M75.9232 53.4467V53.8135C75.6787 53.9494 75.3934 54.0128 75.0719 54.0128C74.8092 54.0128 74.5918 53.9584 74.4062 53.8543C74.225 53.7501 74.0801 53.6052 73.9759 53.4195C73.8718 53.2338 73.8174 53.0346 73.8174 52.8217C73.8174 52.4821 73.9397 52.1968 74.1797 51.9658C74.4243 51.7349 74.7232 51.6171 75.0764 51.6171C75.3209 51.6171 75.5927 51.6805 75.8961 51.8073V52.1651C75.6244 52.0111 75.3572 51.9296 75.0945 51.9296C74.8318 51.9296 74.6054 52.0157 74.4288 52.1832C74.2522 52.3508 74.1616 52.5636 74.1616 52.8172C74.1616 53.0708 74.2477 53.2837 74.4243 53.4512C74.6009 53.6188 74.8228 53.7003 75.09 53.7003C75.3572 53.7003 75.6515 53.6143 75.9187 53.4376L75.9232 53.4467Z" fill="#3EBF7E"/>
<path d="M77.8977 51.6534H78.2329V53.9901H77.8977V52.9712H76.5844V53.9901H76.2493V51.6534H76.5844V52.6632H77.8977V51.6534Z" fill="#3EBF7E"/>
<path d="M78.6721 51.6534H79.0072V53.9901H78.6721V51.6534Z" fill="#3EBF7E"/>
<path d="M79.2427 51.6488H81.1946V51.9477H80.3794V53.9901H80.0443V51.9477H79.2427V51.6488Z" fill="#3EBF7E"/>
<path d="M81.4255 51.6534H82.7524V51.9522H81.7607V52.6632H82.7162V52.9621H81.7607V53.6867H82.7841V53.9856H81.4255V51.6534Z" fill="#3EBF7E"/>
<path d="M85.0711 53.4467V53.8135C84.8265 53.9494 84.5412 54.0128 84.2197 54.0128C83.957 54.0128 83.7397 53.9584 83.554 53.8543C83.3728 53.7501 83.2279 53.6052 83.1238 53.4195C83.0196 53.2338 82.9653 53.0346 82.9653 52.8217C82.9653 52.4821 83.0875 52.1968 83.3276 51.9658C83.5721 51.7349 83.871 51.6171 84.2242 51.6171C84.4688 51.6171 84.7405 51.6805 85.0439 51.8073V52.1651C84.7722 52.0111 84.505 51.9296 84.2423 51.9296C83.9797 51.9296 83.7532 52.0157 83.5766 52.1832C83.4 52.3508 83.3094 52.5636 83.3094 52.8172C83.3094 53.0708 83.3955 53.2837 83.5721 53.4512C83.7487 53.6188 83.9706 53.7003 84.2378 53.7003C84.505 53.7003 84.7994 53.6143 85.0665 53.4376L85.0711 53.4467Z" fill="#3EBF7E"/>
<path d="M85.2024 51.6488H87.1542V51.9477H86.3391V53.9901H86.004V51.9477H85.2024V51.6488Z" fill="#3EBF7E"/>
<path d="M89.0155 51.6534H89.3506V52.9802C89.3506 53.1614 89.337 53.2972 89.3098 53.3878C89.2827 53.4784 89.251 53.5554 89.2147 53.6142C89.1785 53.6731 89.1287 53.7275 89.0743 53.7773C88.8887 53.9358 88.6487 54.0173 88.3498 54.0173C88.0509 54.0173 87.8018 53.9358 87.6161 53.7818C87.5618 53.732 87.512 53.6776 87.4757 53.6188C87.435 53.5599 87.4033 53.4829 87.3807 53.3969C87.358 53.3108 87.3444 53.1704 87.3444 52.9802V51.6579H87.6795V52.9848C87.6795 53.2067 87.7067 53.3561 87.7565 53.4422C87.8063 53.5282 87.8833 53.5961 87.9875 53.6505C88.0916 53.7048 88.2094 53.7275 88.3498 53.7275C88.549 53.7275 88.7075 53.6776 88.8343 53.5735C88.9023 53.5191 88.9475 53.4512 88.9747 53.3788C89.0019 53.3018 89.02 53.175 89.02 52.9893V51.6624L89.0155 51.6534Z" fill="#3EBF7E"/>
<path d="M89.7401 53.9901V51.6534H90.3243C90.5597 51.6534 90.7499 51.7122 90.8858 51.83C91.0262 51.9477 91.0941 52.1062 91.0941 52.3055C91.0941 52.4413 91.0624 52.5591 90.9945 52.6587C90.9266 52.7583 90.8269 52.8308 90.7001 52.8806C90.7771 52.9304 90.8496 52.9983 90.9175 53.0799C90.9854 53.1614 91.0896 53.3108 91.2164 53.5237C91.2979 53.655 91.3613 53.7546 91.4111 53.8226L91.5334 53.9901H91.1349L91.0352 53.8361C91.0352 53.8361 91.0262 53.8226 91.0171 53.809L90.9537 53.7184L90.8496 53.5463L90.7364 53.3652C90.6684 53.2701 90.605 53.1931 90.5462 53.1342C90.4873 53.0799 90.4375 53.0346 90.3922 53.0119C90.3469 52.9848 90.2699 52.9757 90.1567 52.9757H90.0707V53.9946H89.7355L89.7401 53.9901ZM90.1748 51.9387H90.0752V52.6768H90.202C90.3695 52.6768 90.4873 52.6632 90.5507 52.6315C90.6141 52.5998 90.6639 52.5591 90.7001 52.5002C90.7364 52.4413 90.7545 52.3734 90.7545 52.3009C90.7545 52.2285 90.7364 52.1606 90.6956 52.1017C90.6548 52.0428 90.6005 52.0021 90.5326 51.9749C90.4601 51.9522 90.3424 51.9387 90.1793 51.9387H90.1748Z" fill="#3EBF7E"/>
<path d="M92.4617 51.6398H92.6972L93.7433 53.9901H93.3991L93.0867 53.2972H92.0904L91.8005 53.9901H91.4564L92.4617 51.6398ZM92.9553 52.9984L92.5795 52.1515L92.2307 52.9984H92.9599H92.9553Z" fill="#3EBF7E"/>
<path d="M93.92 51.6534H94.2551V53.6867H95.3057V53.9901H93.92V51.6534Z" fill="#3EBF7E"/>
<path d="M96.3881 51.6534H97.7149V51.9522H96.7232V52.6632H97.6787V52.9621H96.7232V53.6867H97.7466V53.9856H96.3881V51.6534Z" fill="#3EBF7E"/>
<path d="M99.8751 51.6534H100.192V53.9901H99.9023L98.3399 52.1923V53.9901H98.0274V51.6534H98.2991L99.8751 53.4693V51.6534Z" fill="#3EBF7E"/>
<path d="M101.872 52.8399H102.656V53.8316C102.366 53.9584 102.085 54.0173 101.8 54.0173C101.415 54.0173 101.102 53.9041 100.871 53.6776C100.64 53.4512 100.523 53.175 100.523 52.8444C100.523 52.4957 100.64 52.2058 100.88 51.9749C101.12 51.7439 101.419 51.6262 101.782 51.6262C101.913 51.6262 102.04 51.6398 102.158 51.6669C102.275 51.6941 102.425 51.7485 102.606 51.8254V52.1651C102.33 52.0021 102.049 51.9205 101.777 51.9205C101.524 51.9205 101.306 52.0066 101.134 52.1832C100.962 52.3598 100.871 52.5727 100.871 52.8263C100.871 53.0799 100.957 53.3063 101.134 53.4784C101.311 53.6459 101.533 53.732 101.809 53.732C101.945 53.732 102.103 53.7003 102.289 53.6414L102.321 53.6324V53.1433H101.872V52.8444V52.8399Z" fill="#3EBF7E"/>
<path d="M103.068 51.6534H103.403V53.9901H103.068V51.6534Z" fill="#3EBF7E"/>
<path d="M105.694 51.6534H106.011V53.9901H105.722L104.159 52.1923V53.9901H103.847V51.6534H104.118L105.694 53.4693V51.6534Z" fill="#3EBF7E"/>
<path d="M106.428 51.6534H107.755V51.9522H106.763V52.6632H107.719V52.9621H106.763V53.6867H107.787V53.9856H106.428V51.6534Z" fill="#3EBF7E"/>
<path d="M108.058 51.6534H109.385V51.9522H108.393V52.6632H109.349V52.9621H108.393V53.6867H109.417V53.9856H108.058V51.6534Z" fill="#3EBF7E"/>
<path d="M109.702 53.9901V51.6534H110.286C110.522 51.6534 110.712 51.7122 110.848 51.83C110.984 51.9477 111.056 52.1062 111.056 52.3055C111.056 52.4413 111.02 52.5591 110.952 52.6587C110.884 52.7583 110.785 52.8308 110.658 52.8806C110.73 52.9304 110.807 52.9983 110.875 53.0799C110.948 53.1659 111.047 53.3108 111.174 53.5237C111.255 53.655 111.323 53.7546 111.369 53.8226L111.491 53.9901H111.092L110.988 53.8361C110.988 53.8361 110.979 53.8226 110.97 53.809L110.907 53.7184L110.803 53.5463L110.689 53.3652C110.621 53.2701 110.558 53.1931 110.499 53.1342C110.44 53.0799 110.391 53.0346 110.345 53.0119C110.3 52.9848 110.223 52.9757 110.114 52.9757H110.028V53.9946H109.693L109.702 53.9901ZM110.137 51.9387H110.037V52.6768H110.164C110.332 52.6768 110.449 52.6632 110.513 52.6315C110.576 52.5998 110.626 52.5591 110.662 52.5002C110.698 52.4413 110.717 52.3734 110.717 52.3009C110.717 52.2285 110.698 52.1606 110.658 52.1017C110.617 52.0428 110.563 52.0021 110.49 51.9749C110.418 51.9522 110.3 51.9387 110.137 51.9387Z" fill="#3EBF7E"/>
<path d="M111.681 51.6534H112.016V53.9901H111.681V51.6534Z" fill="#3EBF7E"/>
<path d="M114.308 51.6534H114.625V53.9901H114.335L112.773 52.1923V53.9901H112.46V51.6534H112.732L114.308 53.4693V51.6534Z" fill="#3EBF7E"/>
<path d="M116.309 52.8399H117.093V53.8316C116.803 53.9584 116.522 54.0173 116.237 54.0173C115.852 54.0173 115.54 53.9041 115.309 53.6776C115.078 53.4512 114.96 53.175 114.96 52.8444C114.96 52.4957 115.078 52.2058 115.318 51.9749C115.558 51.7439 115.857 51.6262 116.219 51.6262C116.35 51.6262 116.477 51.6398 116.595 51.6669C116.712 51.6941 116.862 51.7485 117.043 51.8254V52.1651C116.767 52.0021 116.486 51.9205 116.214 51.9205C115.961 51.9205 115.743 52.0066 115.571 52.1832C115.399 52.3598 115.309 52.5727 115.309 52.8263C115.309 53.0799 115.395 53.3063 115.571 53.4784C115.748 53.6459 115.97 53.732 116.246 53.732C116.382 53.732 116.54 53.7003 116.726 53.6414L116.758 53.6324V53.1433H116.309V52.8444V52.8399Z" fill="#3EBF7E"/>
</svg>
