<svg width="281" height="186" viewBox="0 0 281 186" fill="none" xmlns="http://www.w3.org/2000/svg">
<g clip-path="url(#clip0_267_170)">
<path d="M3.81001 108.89C5.19001 107.51 6.85001 106.82 8.80001 106.82H15.55V115.41C15.55 117.32 16.29 118.28 17.76 118.28H18.58V121H17.76C15.81 121 14.53 120.11 13.9 118.33C12.73 120.11 11.03 121 8.79001 121C6.82001 121 5.15001 120.31 3.77001 118.93C2.39001 117.55 1.70001 115.88 1.70001 113.91C1.70001 111.94 2.40001 110.27 3.80001 108.89H3.81001ZM5.71001 117C6.56001 117.85 7.59001 118.28 8.80001 118.28C10.01 118.28 10.91 117.88 11.68 117.09C12.45 116.3 12.83 115.24 12.83 113.91V109.51H8.80001C7.59001 109.51 6.56001 109.94 5.71001 110.8C4.86001 111.66 4.43001 112.7 4.43001 113.91C4.43001 115.12 4.86001 116.15 5.71001 117ZM5.17001 103.61C5.17001 103.16 5.33001 102.77 5.65001 102.45C5.97001 102.13 6.35001 101.97 6.78001 101.97C7.21001 101.97 7.63001 102.13 7.96001 102.45C8.29001 102.77 8.46001 103.16 8.46001 103.61C8.46001 104.06 8.29001 104.45 7.96001 104.77C7.63001 105.09 7.24001 105.25 6.78001 105.25C6.32001 105.25 5.97001 105.09 5.65001 104.77C5.33001 104.45 5.17001 104.06 5.17001 103.61ZM9.96001 103.61C9.96001 103.16 10.12 102.77 10.43 102.45C10.74 102.13 11.12 101.97 11.58 101.97C12.04 101.97 12.42 102.13 12.74 102.45C13.06 102.77 13.22 103.16 13.22 103.61C13.22 104.06 13.06 104.45 12.74 104.77C12.42 105.09 12.03 105.25 11.58 105.25C11.13 105.25 10.74 105.09 10.43 104.77C10.12 104.45 9.96001 104.06 9.96001 103.61Z" fill="#4CBD94"/>
<path d="M18.02 118.28H19.69C20.45 118.28 21.02 118.02 21.42 117.51C21.82 117 22.02 116.3 22.02 115.41V106.82H24.74V115.41C24.74 117.09 24.28 118.45 23.36 119.47C22.44 120.49 21.22 121 19.69 121H18.02V118.28ZM19.78 123.87C20.08 123.55 20.46 123.39 20.91 123.39C21.36 123.39 21.73 123.55 22.06 123.87C22.39 124.19 22.56 124.58 22.56 125.03C22.56 125.48 22.39 125.85 22.06 126.18C21.73 126.51 21.35 126.68 20.91 126.68C20.47 126.68 20.07 126.52 19.76 126.2C19.45 125.88 19.29 125.49 19.29 125.04C19.29 124.59 19.45 124.2 19.77 123.88L19.78 123.87ZM24.09 125.03C24.09 124.58 24.25 124.19 24.57 123.87C24.89 123.55 25.28 123.39 25.73 123.39C26.18 123.39 26.55 123.55 26.88 123.87C27.21 124.19 27.38 124.58 27.38 125.03C27.38 125.48 27.21 125.85 26.88 126.18C26.55 126.51 26.17 126.68 25.73 126.68C25.29 126.68 24.89 126.51 24.57 126.18C24.25 125.85 24.09 125.47 24.09 125.03Z" fill="#4CBD94"/>
<path d="M37.68 118.28V114.42C37.68 112.95 37.28 111.76 36.47 110.86C35.67 109.96 34.61 109.51 33.31 109.51C32.35 109.51 31.45 109.77 30.62 110.3L29.49 107.92C30.61 107.18 31.88 106.81 33.32 106.81C35.36 106.81 37.05 107.52 38.4 108.95C39.74 110.38 40.41 112.2 40.41 114.41V120.99H28.18V118.27H37.68V118.28Z" fill="#4CBD94"/>
<path d="M43.92 98.88H46.61V115.42C46.61 117.33 47.36 118.29 48.85 118.29H49.56V121.01H48.85C47.32 121.01 46.11 120.5 45.23 119.48C44.35 118.46 43.91 117.11 43.91 115.42V98.88H43.92Z" fill="#4CBD94"/>
<path d="M48.99 121V118.28H51.77V106.82H54.46V111.1C56.96 108.24 59.47 106.82 62 106.82C64 106.82 65.64 107.51 66.89 108.89C68.15 110.27 68.78 112.06 68.78 114.25V115.47C68.78 117.34 69.49 118.28 70.91 118.28H71.68V121H70.91C69.23 121 68.03 120.29 67.34 118.87C66.47 120.29 65.17 121 63.45 121H48.98H48.99ZM54.46 118.28H63.45C64.21 118.28 64.83 118.01 65.32 117.47C65.81 116.93 66.06 116.15 66.06 115.13V114.28C66.06 112.84 65.67 111.69 64.9 110.82C64.12 109.95 63.07 109.52 61.72 109.52C59.58 109.52 57.16 111.15 54.46 114.4V118.29V118.28Z" fill="#4CBD94"/>
<path d="M71.12 121V118.28H72.99C74.48 118.28 75.23 117.32 75.23 115.41V106.82H77.92V115.41C77.92 117.32 78.67 118.28 80.16 118.28H82.03V121H80.16C78.55 121 77.36 120.36 76.59 119.07C75.78 120.36 74.58 121 72.99 121H71.12ZM72.6 103.61C72.6 103.16 72.76 102.77 73.07 102.45C73.38 102.13 73.77 101.97 74.22 101.97C74.67 101.97 75.06 102.13 75.38 102.45C75.7 102.77 75.86 103.16 75.86 103.61C75.86 104.06 75.7 104.45 75.38 104.77C75.06 105.09 74.67 105.25 74.22 105.25C73.77 105.25 73.38 105.09 73.07 104.77C72.76 104.45 72.6 104.06 72.6 103.61ZM77.85 102.45C78.17 102.13 78.56 101.97 79.01 101.97C79.46 101.97 79.85 102.13 80.17 102.45C80.49 102.77 80.65 103.16 80.65 103.61C80.65 104.06 80.49 104.45 80.17 104.77C79.85 105.09 79.46 105.25 79.01 105.25C78.56 105.25 78.17 105.09 77.85 104.77C77.53 104.45 77.37 104.06 77.37 103.61C77.37 103.16 77.53 102.77 77.85 102.45Z" fill="#4CBD94"/>
<path d="M86.26 118.28C85.48 117.75 84.87 117.07 84.43 116.22C83.99 115.38 83.76 114.47 83.76 113.48C83.76 111.65 84.42 110.08 85.75 108.77C87.07 107.47 88.7 106.81 90.63 106.81C92.56 106.81 94.32 107.51 95.68 108.91C97.04 110.31 97.72 112.04 97.72 114.1V120.99H81.47V118.27H86.26V118.28ZM86.26 113.91C86.26 115.12 86.69 116.15 87.54 117C88.39 117.85 89.42 118.28 90.63 118.28H95.03V113.91C95.03 112.7 94.6 111.66 93.75 110.8C92.9 109.94 91.86 109.51 90.63 109.51C89.4 109.51 88.39 109.94 87.54 110.8C86.69 111.66 86.26 112.7 86.26 113.91ZM86.91 102.25C87.23 101.93 87.62 101.77 88.07 101.77C88.52 101.77 88.89 101.93 89.22 102.25C89.55 102.57 89.72 102.96 89.72 103.41C89.72 103.86 89.56 104.24 89.24 104.54C88.92 104.86 88.53 105.02 88.08 105.02C87.63 105.02 87.24 104.86 86.92 104.55C86.6 104.24 86.44 103.85 86.44 103.4C86.44 102.95 86.6 102.56 86.92 102.24L86.91 102.25ZM92.02 102.25C92.34 101.93 92.73 101.77 93.18 101.77C93.63 101.77 94 101.93 94.33 102.25C94.66 102.57 94.83 102.96 94.83 103.41C94.83 103.86 94.67 104.24 94.35 104.54C94.03 104.86 93.64 105.02 93.19 105.02C92.74 105.02 92.35 104.86 92.03 104.55C91.71 104.24 91.55 103.85 91.55 103.4C91.55 102.95 91.71 102.56 92.03 102.24L92.02 102.25Z" fill="#4CBD94"/>
<path d="M108.84 118.28C109.63 118.28 110.23 118.03 110.64 117.53C111.05 117.03 111.25 116.32 111.25 115.42V98.88H113.94V115.42C113.94 117.1 113.47 118.46 112.54 119.48C111.6 120.5 110.37 121.01 108.84 121.01H100.42V118.29H108.84V118.28ZM102.26 116.83V100.29H104.95V116.83H102.26Z" fill="#4CBD94"/>
<path d="M121.38 121H118.69V98.88H121.38V121Z" fill="#4CBD94"/>
<path d="M132.81 112.66V109.65H135.53V112.66C135.53 114.55 136 115.96 136.95 116.89C137.9 117.82 139.34 118.28 141.29 118.28H145.89C147.78 118.28 148.73 117.18 148.73 114.99V106.82H151.42V114.99C151.42 116.82 150.92 118.29 149.93 119.37C148.94 120.46 147.59 121 145.89 121H141.29C138.57 121 136.47 120.27 135.01 118.82C133.54 117.36 132.81 115.31 132.81 112.67V112.66ZM138.26 103.61C138.26 103.16 138.42 102.77 138.74 102.45C139.06 102.13 139.45 101.97 139.9 101.97C140.35 101.97 140.74 102.13 141.06 102.45C141.38 102.77 141.54 103.16 141.54 103.61C141.54 104.06 141.38 104.45 141.06 104.77C140.74 105.09 140.35 105.25 139.9 105.25C139.45 105.25 139.06 105.09 138.74 104.77C138.42 104.45 138.26 104.06 138.26 103.61ZM143.65 102.45C143.95 102.13 144.33 101.97 144.78 101.97C145.23 101.97 145.62 102.13 145.94 102.45C146.26 102.77 146.42 103.16 146.42 103.61C146.42 104.06 146.26 104.45 145.94 104.77C145.62 105.09 145.23 105.25 144.78 105.25C144.33 105.25 143.94 105.09 143.63 104.77C143.32 104.45 143.16 104.06 143.16 103.61C143.16 103.16 143.32 102.77 143.64 102.45H143.65Z" fill="#4CBD94"/>
<path d="M156.75 108.8C158.13 107.42 159.8 106.73 161.77 106.73C163.87 106.73 165.59 107.44 166.92 108.87C168.25 110.3 168.92 112.14 168.92 114.39V118.28H171.22V121H168.89C168.72 122.83 168.01 124.37 166.76 125.61C165.51 126.85 163.89 127.47 161.91 127.47C160.72 127.47 159.58 127.22 158.49 126.72C157.4 126.22 156.53 125.53 155.87 124.66L157.77 122.87C158.22 123.46 158.82 123.91 159.56 124.25C160.3 124.58 161.06 124.75 161.86 124.75C163.09 124.75 164.09 124.38 164.85 123.64C165.62 122.9 166.06 122.02 166.17 121H162.14C159.98 121 158.2 120.32 156.78 118.96C155.36 117.6 154.65 115.89 154.65 113.83C154.65 111.77 155.35 110.19 156.75 108.81V108.8ZM158.71 117.03C159.58 117.86 160.72 118.28 162.14 118.28H166.2V114.2C166.2 112.8 165.79 111.66 164.98 110.77C164.17 109.88 163.1 109.44 161.77 109.44C160.56 109.44 159.52 109.87 158.66 110.72C157.8 111.57 157.37 112.61 157.37 113.84C157.37 115.16 157.81 116.23 158.7 117.05L158.71 117.03Z" fill="#4CBD94"/>
<path d="M170.65 118.28H172.52C173.99 118.28 174.73 117.32 174.73 115.41V106.82H177.45V115.41C177.45 117.32 178.2 118.28 179.69 118.28H181.56V121H179.69C178.06 121 176.86 120.36 176.09 119.07C175.31 120.36 174.12 121 172.52 121H170.65V118.28ZM172.55 123.87C172.87 123.55 173.26 123.39 173.71 123.39C174.16 123.39 174.53 123.55 174.86 123.87C175.19 124.19 175.36 124.58 175.36 125.03C175.36 125.48 175.19 125.85 174.86 126.18C174.53 126.51 174.15 126.68 173.71 126.68C173.27 126.68 172.87 126.51 172.55 126.18C172.23 125.85 172.07 125.47 172.07 125.03C172.07 124.59 172.23 124.19 172.55 123.87ZM177.37 123.87C177.67 123.55 178.05 123.39 178.5 123.39C178.95 123.39 179.32 123.55 179.65 123.87C179.98 124.19 180.15 124.58 180.15 125.03C180.15 125.48 179.98 125.85 179.65 126.18C179.32 126.51 178.94 126.68 178.5 126.68C178.06 126.68 177.66 126.52 177.35 126.2C177.04 125.88 176.88 125.49 176.88 125.04C176.88 124.59 177.04 124.2 177.36 123.88L177.37 123.87Z" fill="#4CBD94"/>
<path d="M181 121V118.28H181.77C183.26 118.28 184.01 117.32 184.01 115.41V106.82H186.73V115.41C186.73 117.32 187.47 118.28 188.94 118.28H189.71V121H188.94C187.33 121 186.14 120.36 185.37 119.07C184.59 120.36 183.39 121 181.77 121H181ZM183.64 124.91C183.64 124.44 183.8 124.03 184.12 123.7C184.44 123.37 184.84 123.2 185.31 123.2C185.78 123.2 186.18 123.37 186.52 123.7C186.85 124.03 187.02 124.43 187.02 124.91C187.02 125.39 186.86 125.78 186.54 126.1C186.2 126.42 185.79 126.58 185.32 126.58C184.85 126.58 184.45 126.42 184.13 126.1C183.81 125.78 183.65 125.38 183.65 124.91H183.64Z" fill="#4CBD94"/>
<path d="M189.14 118.28H189.91C191.4 118.28 192.15 117.32 192.15 115.41V98.87H194.87V115.41C194.87 117.09 194.43 118.45 193.54 119.47C192.65 120.49 191.44 121 189.91 121H189.14V118.28Z" fill="#4CBD94"/>
<path d="M202.3 121H199.6V98.88H202.3V121Z" fill="#4CBD94"/>
<path d="M215.83 108.89C217.21 107.51 218.87 106.82 220.82 106.82H227.57V115.41C227.57 117.32 228.31 118.28 229.78 118.28H230.6V121H229.78C227.83 121 226.55 120.11 225.92 118.33C224.75 120.11 223.04 121 220.81 121C218.84 121 217.17 120.31 215.79 118.93C214.41 117.55 213.72 115.88 213.72 113.91C213.72 111.94 214.42 110.27 215.82 108.89H215.83ZM217.73 117C218.58 117.85 219.61 118.28 220.82 118.28C222.03 118.28 222.93 117.88 223.7 117.09C224.47 116.3 224.85 115.24 224.85 113.91V109.51H220.82C219.61 109.51 218.58 109.94 217.73 110.8C216.88 111.66 216.45 112.7 216.45 113.91C216.45 115.12 216.88 116.15 217.73 117ZM217.19 103.61C217.19 103.16 217.35 102.77 217.67 102.45C217.99 102.13 218.37 101.97 218.8 101.97C219.23 101.97 219.65 102.13 219.98 102.45C220.31 102.77 220.48 103.16 220.48 103.61C220.48 104.06 220.31 104.45 219.98 104.77C219.65 105.09 219.26 105.25 218.8 105.25C218.34 105.25 217.99 105.09 217.67 104.77C217.35 104.45 217.19 104.06 217.19 103.61ZM221.98 103.61C221.98 103.16 222.14 102.77 222.45 102.45C222.76 102.13 223.14 101.97 223.6 101.97C224.06 101.97 224.44 102.13 224.76 102.45C225.08 102.77 225.24 103.16 225.24 103.61C225.24 104.06 225.08 104.45 224.76 104.77C224.44 105.09 224.05 105.25 223.6 105.25C223.15 105.25 222.76 105.09 222.45 104.77C222.14 104.45 221.98 104.06 221.98 103.61Z" fill="#4CBD94"/>
<path d="M230.04 121V118.28H244.76L244.73 116.32C244.71 114.24 244.08 112.59 242.84 111.36C241.6 110.13 239.95 109.52 237.89 109.52H232.36V106.82L241.32 98.88H244.98L235.9 106.82H238.03C240.73 106.82 242.97 107.7 244.75 109.44C246.53 111.18 247.43 113.44 247.45 116.18V121H230.03H230.04Z" fill="#4CBD94"/>
<path d="M247.69 124.6C248.09 124.73 248.48 124.8 248.85 124.8C250.8 124.8 251.77 123.62 251.77 121.25V106.81L254.49 106.78V118.27H257.61V120.99H254.49V121.78C254.49 123.5 254.04 124.88 253.13 125.91C252.22 126.94 250.82 127.46 248.93 127.46C248.21 127.46 247.54 127.35 246.92 127.12L247.69 124.6Z" fill="#4CBD94"/>
<path d="M257.05 118.28H257.87C259.36 118.28 260.11 117.32 260.11 115.41V106.82H262.81V115.05C262.81 116.07 263.06 116.87 263.56 117.43C264.06 117.99 264.69 118.28 265.45 118.28C266.21 118.28 266.83 118 267.32 117.43C267.81 116.86 268.06 116.07 268.06 115.05V106.82H270.78V115.05C270.78 116.07 271.03 116.87 271.52 117.43C272.01 118 272.64 118.28 273.42 118.28C274.2 118.28 274.8 118 275.29 117.43C275.78 116.86 276.03 116.07 276.03 115.05V106.82H278.75V115.05C278.73 116.85 278.22 118.29 277.2 119.38C276.19 120.47 274.93 121.01 273.41 121.01C271.61 121.01 270.29 120.24 269.44 118.71C268.55 120.24 267.22 121.01 265.44 121.01C263.66 121.01 262.41 120.3 261.53 118.88C260.81 120.3 259.59 121.01 257.87 121.01H257.05V118.29V118.28ZM265.19 103.64C265.19 103.21 265.35 102.83 265.66 102.51C265.97 102.19 266.34 102.03 266.78 102.03C267.22 102.03 267.59 102.19 267.91 102.51C268.23 102.83 268.39 103.21 268.39 103.64C268.39 104.07 268.23 104.47 267.91 104.77C267.59 105.09 267.21 105.25 266.78 105.25C266.35 105.25 265.97 105.09 265.66 104.78C265.35 104.47 265.19 104.09 265.19 103.63V103.64ZM268.17 98.87C268.45 98.59 268.8 98.45 269.22 98.45C269.64 98.45 269.96 98.59 270.26 98.87C270.55 99.15 270.7 99.5 270.7 99.92C270.7 100.34 270.55 100.66 270.26 100.96C269.97 101.25 269.62 101.4 269.22 101.4C268.82 101.4 268.45 101.25 268.17 100.96C267.89 100.67 267.75 100.32 267.75 99.92C267.75 99.52 267.89 99.15 268.17 98.87ZM270.01 103.64C270.01 103.21 270.17 102.83 270.48 102.51C270.79 102.19 271.18 102.03 271.63 102.03C272.08 102.03 272.44 102.19 272.76 102.51C273.08 102.83 273.24 103.21 273.24 103.64C273.24 104.07 273.08 104.48 272.76 104.79C272.44 105.1 272.06 105.26 271.63 105.26C271.2 105.26 270.79 105.1 270.48 104.79C270.17 104.48 270.01 104.1 270.01 103.64Z" fill="#4CBD94"/>
<path d="M6.57997 142.93C7.95997 141.55 9.61997 140.86 11.57 140.86H18.32V149.45C18.32 151.36 19.06 152.32 20.53 152.32H21.35V155.04H20.53C18.58 155.04 17.3 154.15 16.67 152.37C15.5 154.15 13.8 155.04 11.56 155.04C9.58997 155.04 7.91997 154.35 6.53997 152.97C5.15997 151.59 4.46997 149.92 4.46997 147.95C4.46997 145.98 5.16997 144.31 6.56997 142.93H6.57997ZM8.47997 151.04C9.32997 151.89 10.36 152.32 11.57 152.32C12.78 152.32 13.68 151.92 14.45 151.13C15.22 150.34 15.6 149.28 15.6 147.95V143.55H11.57C10.36 143.55 9.32997 143.98 8.47997 144.84C7.62997 145.7 7.19997 146.74 7.19997 147.95C7.19997 149.16 7.62997 150.19 8.47997 151.04ZM7.93997 137.65C7.93997 137.2 8.09997 136.81 8.41997 136.49C8.73997 136.17 9.11997 136.01 9.54997 136.01C9.97997 136.01 10.4 136.17 10.73 136.49C11.06 136.81 11.23 137.2 11.23 137.65C11.23 138.1 11.06 138.49 10.73 138.81C10.4 139.13 10.01 139.29 9.54997 139.29C9.08997 139.29 8.73997 139.13 8.41997 138.81C8.09997 138.49 7.93997 138.1 7.93997 137.65ZM12.73 137.65C12.73 137.2 12.89 136.81 13.2 136.49C13.51 136.17 13.89 136.01 14.35 136.01C14.81 136.01 15.19 136.17 15.51 136.49C15.83 136.81 15.99 137.2 15.99 137.65C15.99 138.1 15.83 138.49 15.51 138.81C15.19 139.13 14.8 139.29 14.35 139.29C13.9 139.29 13.51 139.13 13.2 138.81C12.89 138.49 12.73 138.1 12.73 137.65Z" fill="#4CBD94"/>
<path d="M20.79 152.32H22.46C23.22 152.32 23.79 152.06 24.19 151.55C24.59 151.04 24.79 150.34 24.79 149.45V140.86H27.51V149.45C27.51 151.13 27.05 152.49 26.13 153.51C25.21 154.53 23.99 155.04 22.46 155.04H20.79V152.32ZM22.55 157.91C22.85 157.59 23.23 157.43 23.68 157.43C24.13 157.43 24.5 157.59 24.83 157.91C25.16 158.23 25.33 158.62 25.33 159.07C25.33 159.52 25.16 159.89 24.83 160.22C24.5 160.55 24.12 160.72 23.68 160.72C23.24 160.72 22.84 160.56 22.53 160.24C22.22 159.92 22.06 159.53 22.06 159.08C22.06 158.63 22.22 158.24 22.54 157.92L22.55 157.91ZM26.86 159.07C26.86 158.62 27.02 158.23 27.34 157.91C27.66 157.59 28.05 157.43 28.5 157.43C28.95 157.43 29.32 157.59 29.65 157.91C29.98 158.23 30.15 158.62 30.15 159.07C30.15 159.52 29.98 159.89 29.65 160.22C29.32 160.55 28.94 160.72 28.5 160.72C28.06 160.72 27.66 160.55 27.34 160.22C27.02 159.89 26.86 159.51 26.86 159.07Z" fill="#4CBD94"/>
<path d="M28.61 158.64C29.01 158.77 29.4 158.84 29.77 158.84C30.83 158.84 31.58 158.53 32.02 157.9C32.46 157.27 32.69 156.3 32.69 154.98V140.85L35.41 140.82V155C35.41 157.12 34.93 158.73 33.98 159.84C33.02 160.95 31.65 161.5 29.85 161.5C29.13 161.5 28.46 161.39 27.84 161.16L28.61 158.64Z" fill="#4CBD94"/>
<path d="M39.53 132.91H42.22V149.45C42.22 151.36 42.97 152.32 44.46 152.32H45.17V155.04H44.46C42.93 155.04 41.72 154.53 40.84 153.51C39.96 152.49 39.52 151.14 39.52 149.45V132.91H39.53Z" fill="#4CBD94"/>
<path d="M55.96 155.04H44.61V152.32H55.96V155.04Z" fill="#4CBD94"/>
<path d="M66.74 155.04H55.39V152.32H66.74V155.04Z" fill="#4CBD94"/>
<path d="M66.17 152.32H70.42C69.72 151.85 69.16 151.23 68.75 150.46C68.34 149.69 68.13 148.86 68.13 147.95C68.13 145.98 68.83 144.31 70.21 142.93C71.6 141.55 73.27 140.86 75.22 140.86C77.17 140.86 78.84 141.55 80.23 142.93C81.62 144.31 82.31 145.98 82.31 147.95V150.11C82.31 150.77 82.49 151.31 82.85 151.71C83.21 152.12 83.71 152.32 84.35 152.32H85.12V155.04H84.35C83.37 155.04 82.56 154.79 81.94 154.3C81.32 153.81 80.9 153.13 80.69 152.26C80.07 153.11 79.27 153.79 78.31 154.29C77.35 154.79 76.31 155.04 75.22 155.04H66.17V152.32ZM72.13 151.04C72.98 151.89 74.01 152.32 75.22 152.32C76.43 152.32 77.46 151.89 78.31 151.04C79.16 150.19 79.59 149.16 79.59 147.95C79.59 146.74 79.16 145.7 78.31 144.84C77.46 143.98 76.43 143.55 75.22 143.55C74.01 143.55 72.98 143.98 72.13 144.84C71.28 145.7 70.85 146.74 70.85 147.95C70.85 149.16 71.28 150.19 72.13 151.04Z" fill="#4CBD94"/>
<path d="M84.55 152.32H91.19L86.68 145.6V140.86H97.35C101.13 140.86 103.02 142.2 103.02 144.89C103.02 145.48 102.9 146.08 102.67 146.69C102.43 147.31 102.04 147.98 101.48 148.7C100.92 149.43 100.47 150 100.12 150.4C99.77 150.81 99.19 151.44 98.38 152.32H105.16L105.19 155.04H84.57V152.32H84.55ZM89.85 145.46L94.39 152.32H95.24C95.45 152.09 95.77 151.74 96.22 151.27C96.66 150.8 96.99 150.44 97.21 150.19C97.43 149.94 97.72 149.62 98.08 149.23C98.44 148.83 98.71 148.5 98.89 148.24C99.07 147.98 99.26 147.68 99.46 147.36C99.66 147.04 99.8 146.75 99.89 146.48C99.98 146.22 100.02 145.96 100.02 145.71C100.02 144.86 99.73 144.29 99.14 143.99C98.55 143.7 97.65 143.55 96.42 143.55H89.87V145.45L89.85 145.46Z" fill="#4CBD94"/>
<path d="M104.6 152.32H108.85C108.15 151.85 107.59 151.23 107.18 150.46C106.77 149.69 106.56 148.86 106.56 147.95C106.56 145.98 107.26 144.31 108.64 142.93C110.03 141.55 111.7 140.86 113.65 140.86C115.6 140.86 117.27 141.55 118.66 142.93C120.05 144.31 120.74 145.98 120.74 147.95V150.11C120.74 150.77 120.92 151.31 121.28 151.71C121.64 152.12 122.14 152.32 122.78 152.32H123.55V155.04H122.78C121.8 155.04 120.99 154.79 120.37 154.3C119.75 153.81 119.33 153.13 119.12 152.26C118.5 153.11 117.7 153.79 116.74 154.29C115.78 154.79 114.74 155.04 113.65 155.04H104.6V152.32ZM110.56 151.04C111.41 151.89 112.44 152.32 113.65 152.32C114.86 152.32 115.89 151.89 116.74 151.04C117.59 150.19 118.02 149.16 118.02 147.95C118.02 146.74 117.59 145.7 116.74 144.84C115.89 143.98 114.86 143.55 113.65 143.55C112.44 143.55 111.41 143.98 110.56 144.84C109.71 145.7 109.28 146.74 109.28 147.95C109.28 149.16 109.71 150.19 110.56 151.04Z" fill="#4CBD94"/>
<path d="M122.98 152.32H123.75C125.24 152.32 125.99 151.36 125.99 149.45V132.91H128.71V149.45C128.71 151.13 128.27 152.49 127.38 153.51C126.49 154.53 125.28 155.04 123.75 155.04H122.98V152.32Z" fill="#4CBD94"/>
<path d="M136.14 155.04H133.44V132.92H136.14V155.04Z" fill="#4CBD94"/>
<path d="M149.67 142.93C151.05 141.55 152.71 140.86 154.66 140.86H161.41V149.45C161.41 151.36 162.15 152.32 163.62 152.32H164.44V155.04H163.62C161.67 155.04 160.39 154.15 159.76 152.37C158.59 154.15 156.88 155.04 154.65 155.04C152.68 155.04 151.01 154.35 149.63 152.97C148.25 151.59 147.56 149.92 147.56 147.95C147.56 145.98 148.26 144.31 149.66 142.93H149.67ZM151.57 151.04C152.42 151.89 153.45 152.32 154.66 152.32C155.87 152.32 156.77 151.92 157.54 151.13C158.31 150.34 158.69 149.28 158.69 147.95V143.55H154.66C153.45 143.55 152.42 143.98 151.57 144.84C150.72 145.7 150.29 146.74 150.29 147.95C150.29 149.16 150.72 150.19 151.57 151.04ZM151.03 137.65C151.03 137.2 151.19 136.81 151.51 136.49C151.83 136.17 152.21 136.01 152.64 136.01C153.07 136.01 153.49 136.17 153.82 136.49C154.15 136.81 154.32 137.2 154.32 137.65C154.32 138.1 154.15 138.49 153.82 138.81C153.49 139.13 153.1 139.29 152.64 139.29C152.18 139.29 151.83 139.13 151.51 138.81C151.19 138.49 151.03 138.1 151.03 137.65ZM155.82 137.65C155.82 137.2 155.98 136.81 156.29 136.49C156.6 136.17 156.98 136.01 157.44 136.01C157.9 136.01 158.28 136.17 158.6 136.49C158.92 136.81 159.08 137.2 159.08 137.65C159.08 138.1 158.92 138.49 158.6 138.81C158.28 139.13 157.89 139.29 157.44 139.29C156.99 139.29 156.6 139.13 156.29 138.81C155.98 138.49 155.82 138.1 155.82 137.65Z" fill="#4CBD94"/>
<path d="M164.71 152.32C166.2 152.32 166.95 151.36 166.95 149.45V140.86H169.64V149.09C169.64 150.11 169.89 150.91 170.39 151.47C170.89 152.04 171.52 152.32 172.28 152.32C173.04 152.32 173.66 152.04 174.15 151.47C174.64 150.9 174.89 150.11 174.89 149.09V140.86H177.61V149.09C177.61 150.11 177.86 150.91 178.35 151.47C178.84 152.04 179.47 152.32 180.25 152.32C181.03 152.32 181.63 152.04 182.12 151.47C182.61 150.9 182.86 150.11 182.86 149.09V140.86H185.58V149.09C185.56 150.89 185.04 152.33 184.03 153.42C183.02 154.51 181.76 155.05 180.24 155.05C178.41 155.05 177.08 154.27 176.27 152.72C175.4 154.27 174.07 155.05 172.27 155.05C170.47 155.05 169.24 154.34 168.36 152.92C167.64 154.34 166.42 155.05 164.7 155.05H163.88V152.33H164.7L164.71 152.32Z" fill="#4CBD94"/>
<path d="M188.22 155.04V152.32H197.72V148.46C197.72 146.99 197.32 145.8 196.51 144.9C195.71 144 194.65 143.55 193.35 143.55C192.39 143.55 191.49 143.81 190.66 144.34L189.53 141.96C190.65 141.22 191.92 140.85 193.36 140.85C195.4 140.85 197.09 141.56 198.44 142.99C199.79 144.42 200.45 146.24 200.45 148.45V152.31H203.09V155.03H188.23L188.22 155.04Z" fill="#4CBD94"/>
<path d="M213.86 155.04H202.51V152.32H213.86V155.04Z" fill="#4CBD94"/>
<path d="M224.64 155.04H213.29V152.32H224.64V155.04Z" fill="#4CBD94"/>
<path d="M235.42 155.04H224.07V152.32H235.42V155.04Z" fill="#4CBD94"/>
<path d="M234.85 155.04V152.32H235.67C237.16 152.32 237.91 151.36 237.91 149.45V140.86H240.6V149.45C240.6 151.36 241.35 152.32 242.84 152.32H243.66V155.04H242.84C241.23 155.04 240.04 154.4 239.27 153.11C238.46 154.4 237.26 155.04 235.67 155.04H234.85ZM237.57 137.6C237.57 137.13 237.74 136.72 238.07 136.39C238.4 136.06 238.8 135.89 239.28 135.89C239.76 135.89 240.15 136.06 240.49 136.39C240.82 136.72 240.99 137.12 240.99 137.6C240.99 138.08 240.83 138.47 240.51 138.79C240.17 139.13 239.76 139.3 239.29 139.3C238.82 139.3 238.41 139.13 238.08 138.8C237.75 138.47 237.58 138.07 237.58 137.59L237.57 137.6Z" fill="#4CBD94"/>
<path d="M243.11 155.04V152.32H245.89V140.78H251.76C253.75 140.78 255.43 141.47 256.82 142.85C258.21 144.23 258.9 145.9 258.9 147.87V152.32H261.62V155.04H258.87C258.78 157.2 258.12 158.9 256.91 160.16C255.7 161.42 254.19 162.05 252.37 162.05C250.55 162.05 249.03 161.43 247.86 160.19C246.69 158.95 246.04 157.23 245.9 155.04H243.09H243.11ZM251.42 152.32C252.82 152.32 253.96 151.91 254.85 151.09C255.74 150.27 256.18 149.19 256.18 147.87C256.18 146.66 255.75 145.62 254.89 144.76C254.03 143.9 252.98 143.47 251.76 143.47H248.58V152.32H251.42ZM248.61 155.04C248.7 156.48 249.08 157.57 249.74 158.32C250.4 159.07 251.28 159.44 252.38 159.44C253.48 159.44 254.36 159.03 255.09 158.21C255.82 157.39 256.18 156.28 256.18 154.88V152.61C255.69 153.35 254.98 153.94 254.07 154.38C253.15 154.83 252.12 155.05 250.96 155.05H248.61V155.04Z" fill="#4CBD94"/>
<path d="M261.06 152.32H261.88C263.37 152.32 264.12 151.36 264.12 149.45V132.91H266.82V149.45C266.82 151.36 267.57 152.32 269.06 152.32H269.88V155.04H269.06C267.45 155.04 266.26 154.4 265.49 153.11C264.68 154.4 263.48 155.04 261.89 155.04H261.07V152.32H261.06Z" fill="#4CBD94"/>
<path d="M269.31 152.32H270.08C271.57 152.32 272.32 151.36 272.32 149.45V132.91H275.04V149.45C275.04 151.13 274.59 152.49 273.71 153.51C272.82 154.53 271.61 155.04 270.08 155.04H269.31V152.32Z" fill="#4CBD94"/>
<path d="M5.36001 173.33C6.68001 171.97 8.25001 171.28 10.1 171.28C11.27 171.28 12.35 171.6 13.36 172.23C14.36 172.86 15.08 173.66 15.51 174.61L15.58 171.45H17.33V185.02H15.58L15.51 181.91C15.08 182.85 14.37 183.63 13.36 184.25C12.36 184.87 11.27 185.19 10.1 185.19C8.24001 185.19 6.66001 184.51 5.35001 183.15C4.04001 181.79 3.39001 180.15 3.39001 178.23C3.39001 176.31 4.05001 174.69 5.36001 173.32V173.33ZM5.26001 178.24C5.26001 179.64 5.76001 180.83 6.75001 181.83C7.74001 182.83 8.94001 183.32 10.34 183.32C11.74 183.32 12.96 182.83 13.95 181.84C14.95 180.85 15.44 179.65 15.44 178.24C15.44 176.83 14.94 175.64 13.95 174.64C12.96 173.64 11.75 173.14 10.34 173.14C8.93001 173.14 7.75001 173.64 6.75001 174.64C5.75001 175.64 5.26001 176.84 5.26001 178.24Z" fill="#999999"/>
<path d="M19.64 171.48L21.39 171.45L21.49 173.82C21.89 173.05 22.47 172.45 23.24 172.02C24.01 171.59 24.92 171.38 25.95 171.38C26.26 171.38 26.57 171.4 26.86 171.45L26.47 173.28C26.27 173.25 26.11 173.23 25.98 173.23H25.91C24.61 173.23 23.55 173.66 22.74 174.51C21.93 175.36 21.52 176.69 21.52 178.48V185.02H19.64V171.48Z" fill="#999999"/>
<path d="M29.06 173.3C30.41 171.95 32.04 171.28 33.97 171.28C35.12 171.28 36.19 171.55 37.19 172.08C38.18 172.61 39 173.33 39.64 174.24L38.09 175.28C37.63 174.64 37.03 174.13 36.3 173.75C35.57 173.37 34.79 173.18 33.97 173.18C32.57 173.18 31.38 173.67 30.39 174.66C29.4 175.65 28.91 176.83 28.91 178.21C28.91 179.59 29.4 180.8 30.39 181.8C31.38 182.8 32.57 183.29 33.97 183.29C34.82 183.29 35.62 183.09 36.36 182.7C37.1 182.3 37.69 181.77 38.14 181.1L39.72 182.14C39.08 183.08 38.25 183.82 37.24 184.37C36.23 184.92 35.14 185.2 33.97 185.2C32.05 185.2 30.41 184.52 29.06 183.15C27.71 181.79 27.04 180.14 27.04 178.22C27.04 176.3 27.71 174.68 29.06 173.31V173.3Z" fill="#999999"/>
<path d="M41.12 165.78H43V174.02C43.39 173.22 43.98 172.56 44.75 172.05C45.52 171.54 46.43 171.29 47.46 171.29C49.14 171.29 50.5 171.87 51.54 173.04C52.58 174.21 53.11 175.91 53.11 178.15V185.03H51.24V178.15C51.24 176.52 50.85 175.28 50.08 174.43C49.31 173.57 48.32 173.15 47.12 173.15C45.92 173.15 44.93 173.57 44.16 174.42C43.39 175.27 43 176.51 43 178.16V185.04H41.12V165.8V165.78Z" fill="#999999"/>
<path d="M54.76 168.64C54.76 168.28 54.89 167.97 55.14 167.73C55.39 167.48 55.7 167.36 56.04 167.36C56.38 167.36 56.68 167.48 56.93 167.73C57.18 167.98 57.3 168.28 57.3 168.64C57.3 169 57.18 169.28 56.93 169.53C56.68 169.79 56.39 169.92 56.04 169.92C55.69 169.92 55.39 169.79 55.14 169.54C54.89 169.29 54.76 168.99 54.76 168.64ZM55.11 185.02V171.45H56.99V185.02H55.11Z" fill="#999999"/>
<path d="M57.97 171.45H59.87L60.07 167.01H61.7V171.45H65.03V173.18H61.7V180.26C61.7 181.26 61.93 182.04 62.39 182.58C62.85 183.12 63.48 183.39 64.29 183.39C64.7 183.39 65.06 183.32 65.37 183.19L65.86 184.89C65.37 185.1 64.77 185.21 64.08 185.21C62.83 185.21 61.81 184.79 61.01 183.96C60.21 183.13 59.81 181.9 59.81 180.27V173.17H57.96V171.44L57.97 171.45Z" fill="#999999"/>
<path d="M68.28 173.3C69.61 171.95 71.22 171.28 73.11 171.28C75 171.28 76.69 171.95 77.99 173.29C79.29 174.63 79.94 176.27 79.94 178.21C79.94 178.59 79.92 178.93 79.87 179.22H68.25C68.45 180.42 69.03 181.42 70 182.22C70.97 183.02 72.1 183.42 73.4 183.42C75.21 183.42 76.62 182.75 77.64 181.4L79.19 182.36C78.55 183.23 77.71 183.92 76.67 184.43C75.63 184.94 74.54 185.19 73.39 185.19C71.37 185.19 69.67 184.51 68.3 183.15C66.93 181.79 66.24 180.15 66.24 178.2C66.24 176.25 66.91 174.66 68.26 173.29L68.28 173.3ZM78.02 177.64C77.97 176.36 77.49 175.27 76.58 174.38C75.67 173.49 74.51 173.05 73.11 173.05C71.71 173.05 70.64 173.5 69.71 174.39C68.78 175.28 68.28 176.37 68.23 177.63H78.02V177.64Z" fill="#999999"/>
<path d="M82.56 173.3C83.91 171.95 85.54 171.28 87.47 171.28C88.62 171.28 89.69 171.55 90.69 172.08C91.68 172.61 92.5 173.33 93.14 174.24L91.59 175.28C91.13 174.64 90.53 174.13 89.8 173.75C89.07 173.37 88.29 173.18 87.47 173.18C86.07 173.18 84.88 173.67 83.89 174.66C82.9 175.65 82.41 176.83 82.41 178.21C82.41 179.59 82.9 180.8 83.89 181.8C84.88 182.8 86.07 183.29 87.47 183.29C88.32 183.29 89.12 183.09 89.86 182.7C90.6 182.3 91.19 181.77 91.64 181.1L93.22 182.14C92.58 183.08 91.75 183.82 90.74 184.37C89.73 184.92 88.64 185.2 87.47 185.2C85.55 185.2 83.91 184.52 82.56 183.15C81.21 181.79 80.54 180.14 80.54 178.22C80.54 176.3 81.21 174.68 82.56 173.31V173.3Z" fill="#999999"/>
<path d="M93.32 171.45H95.22L95.42 167.01H97.05V171.45H100.38V173.18H97.05V180.26C97.05 181.26 97.28 182.04 97.74 182.58C98.2 183.12 98.83 183.39 99.64 183.39C100.05 183.39 100.41 183.32 100.72 183.19L101.21 184.89C100.72 185.1 100.12 185.21 99.43 185.21C98.18 185.21 97.16 184.79 96.36 183.96C95.56 183.13 95.16 181.9 95.16 180.27V173.17H93.31V171.44L93.32 171.45Z" fill="#999999"/>
<path d="M102.15 171.45H104.02V178.33C104.02 179.96 104.41 181.2 105.18 182.04C105.95 182.89 106.94 183.31 108.14 183.31C109.34 183.31 110.33 182.89 111.1 182.04C111.87 181.19 112.26 179.96 112.26 178.33V171.45H114.14V185.02H112.39L112.32 182.41C111.93 183.22 111.34 183.88 110.56 184.41C109.78 184.94 108.85 185.2 107.79 185.2C106.13 185.2 104.78 184.61 103.73 183.44C102.69 182.26 102.16 180.57 102.16 178.35V171.47L102.15 171.45Z" fill="#999999"/>
<path d="M116.43 171.48L118.18 171.45L118.28 173.82C118.68 173.05 119.26 172.45 120.03 172.02C120.8 171.59 121.71 171.38 122.74 171.38C123.05 171.38 123.36 171.4 123.65 171.45L123.26 173.28C123.06 173.25 122.9 173.23 122.77 173.23H122.7C121.4 173.23 120.34 173.66 119.53 174.51C118.72 175.36 118.31 176.69 118.31 178.48V185.02H116.43V171.48Z" fill="#999999"/>
<path d="M125.8 173.33C127.12 171.97 128.69 171.28 130.54 171.28C131.71 171.28 132.79 171.6 133.8 172.23C134.8 172.86 135.52 173.66 135.95 174.61L136.02 171.45H137.77V185.02H136.02L135.95 181.91C135.52 182.85 134.81 183.63 133.8 184.25C132.8 184.87 131.71 185.19 130.54 185.19C128.68 185.19 127.1 184.51 125.79 183.15C124.48 181.79 123.83 180.15 123.83 178.23C123.83 176.31 124.49 174.69 125.8 173.32V173.33ZM125.7 178.24C125.7 179.64 126.2 180.83 127.19 181.83C128.18 182.83 129.38 183.32 130.78 183.32C132.18 183.32 133.4 182.83 134.39 181.84C135.39 180.85 135.88 179.65 135.88 178.24C135.88 176.83 135.38 175.64 134.39 174.64C133.4 173.64 132.19 173.14 130.78 173.14C129.37 173.14 128.19 173.64 127.19 174.64C126.19 175.64 125.7 176.84 125.7 178.24Z" fill="#999999"/>
<path d="M141.96 185.02H140.08V165.78H141.96V185.02Z" fill="#999999"/>
<path d="M150.67 173.3C152.02 171.95 153.65 171.28 155.58 171.28C156.73 171.28 157.8 171.55 158.8 172.08C159.79 172.61 160.61 173.33 161.25 174.24L159.7 175.28C159.24 174.64 158.64 174.13 157.91 173.75C157.18 173.37 156.4 173.18 155.58 173.18C154.18 173.18 152.99 173.67 152 174.66C151.01 175.65 150.52 176.83 150.52 178.21C150.52 179.59 151.01 180.8 152 181.8C152.99 182.8 154.18 183.29 155.58 183.29C156.44 183.29 157.23 183.09 157.97 182.7C158.71 182.3 159.3 181.77 159.75 181.1L161.33 182.14C160.69 183.08 159.86 183.82 158.85 184.37C157.84 184.92 156.75 185.2 155.58 185.2C153.66 185.2 152.02 184.52 150.67 183.15C149.32 181.79 148.65 180.14 148.65 178.22C148.65 176.3 149.32 174.68 150.67 173.31V173.3Z" fill="#999999"/>
<path d="M163.89 173.3C165.24 171.95 166.88 171.28 168.8 171.28C170.72 171.28 172.34 171.96 173.71 173.32C175.08 174.68 175.76 176.31 175.76 178.22C175.76 180.13 175.08 181.79 173.71 183.15C172.34 184.52 170.71 185.2 168.8 185.2C166.89 185.2 165.24 184.52 163.89 183.15C162.54 181.79 161.87 180.14 161.87 178.22C161.87 176.3 162.54 174.68 163.89 173.31V173.3ZM165.22 181.79C166.21 182.79 167.4 183.29 168.8 183.29C170.2 183.29 171.39 182.79 172.38 181.8C173.37 180.8 173.86 179.61 173.86 178.21C173.86 176.81 173.37 175.64 172.38 174.66C171.39 173.67 170.2 173.18 168.8 173.18C167.4 173.18 166.21 173.67 165.22 174.66C164.23 175.65 163.74 176.83 163.74 178.21C163.74 179.59 164.23 180.8 165.22 181.79Z" fill="#999999"/>
<path d="M177.16 185.02V171.45H178.91L178.98 174.07C179.37 173.25 179.96 172.58 180.74 172.06C181.52 171.54 182.44 171.28 183.49 171.28C185.17 171.28 186.53 171.86 187.57 173.03C188.61 174.2 189.14 175.9 189.14 178.14V185.02H187.27V178.14C187.27 176.51 186.88 175.27 186.11 174.42C185.34 173.56 184.35 173.14 183.15 173.14C181.95 173.14 180.96 173.56 180.19 174.41C179.42 175.26 179.03 176.5 179.03 178.15V185.03H177.15L177.16 185.02Z" fill="#999999"/>
<path d="M191.69 181.61C192.15 182.15 192.81 182.59 193.66 182.93C194.51 183.27 195.41 183.43 196.35 183.43C197.37 183.43 198.2 183.22 198.85 182.81C199.5 182.4 199.82 181.85 199.82 181.16C199.82 180.57 199.51 180.09 198.9 179.74C198.28 179.39 197.53 179.12 196.66 178.94C195.78 178.76 194.9 178.55 194.02 178.31C193.14 178.07 192.39 177.67 191.77 177.1C191.15 176.53 190.85 175.8 190.85 174.89C190.85 173.82 191.31 172.95 192.24 172.27C193.17 171.6 194.39 171.26 195.9 171.26C198.25 171.26 200.04 172 201.28 173.48L200.1 174.66C199.62 174.08 199 173.66 198.24 173.38C197.48 173.1 196.71 172.96 195.96 172.96C195.02 172.96 194.25 173.13 193.64 173.48C193.03 173.83 192.73 174.3 192.73 174.91C192.73 175.44 193.04 175.86 193.65 176.17C194.27 176.48 195.02 176.73 195.91 176.92C196.8 177.11 197.68 177.33 198.56 177.57C199.44 177.82 200.19 178.23 200.8 178.82C201.42 179.4 201.72 180.16 201.72 181.1C201.72 182.43 201.2 183.45 200.15 184.15C199.11 184.85 197.83 185.2 196.32 185.2C195.25 185.2 194.17 185.01 193.09 184.62C192 184.23 191.1 183.64 190.38 182.83L191.69 181.6V181.61Z" fill="#999999"/>
<path d="M202.94 171.45H204.82V178.33C204.82 179.96 205.21 181.2 205.98 182.04C206.75 182.89 207.74 183.31 208.94 183.31C210.14 183.31 211.13 182.89 211.9 182.04C212.67 181.19 213.06 179.96 213.06 178.33V171.45H214.94V185.02H213.19L213.12 182.41C212.73 183.22 212.14 183.88 211.36 184.41C210.58 184.94 209.65 185.2 208.58 185.2C206.92 185.2 205.57 184.61 204.52 183.44C203.48 182.26 202.95 180.57 202.95 178.35V171.47L202.94 171.45Z" fill="#999999"/>
<path d="M219.12 185.02H217.24V165.78H219.12V185.02Z" fill="#999999"/>
<path d="M220.1 171.45H222L222.2 167.01H223.83V171.45H227.16V173.18H223.83V180.26C223.83 181.26 224.06 182.04 224.52 182.58C224.98 183.12 225.61 183.39 226.42 183.39C226.83 183.39 227.19 183.32 227.5 183.19L227.99 184.89C227.5 185.1 226.91 185.21 226.21 185.21C224.96 185.21 223.94 184.79 223.14 183.96C222.34 183.13 221.94 181.9 221.94 180.27V173.17H220.09V171.44L220.1 171.45Z" fill="#999999"/>
<path d="M230.37 173.33C231.69 171.97 233.26 171.28 235.11 171.28C236.28 171.28 237.36 171.6 238.37 172.23C239.37 172.86 240.09 173.66 240.52 174.61L240.59 171.45H242.34V185.02H240.59L240.52 181.91C240.09 182.85 239.38 183.63 238.37 184.25C237.37 184.87 236.28 185.19 235.11 185.19C233.25 185.19 231.67 184.51 230.36 183.15C229.05 181.79 228.4 180.15 228.4 178.23C228.4 176.31 229.06 174.69 230.37 173.32V173.33ZM230.27 178.24C230.27 179.64 230.77 180.83 231.76 181.83C232.75 182.83 233.95 183.32 235.35 183.32C236.75 183.32 237.97 182.83 238.96 181.84C239.96 180.85 240.45 179.65 240.45 178.24C240.45 176.83 239.95 175.64 238.96 174.64C237.97 173.64 236.76 173.14 235.35 173.14C233.94 173.14 232.76 173.64 231.76 174.64C230.76 175.64 230.27 176.84 230.27 178.24Z" fill="#999999"/>
<path d="M244.65 185.02V171.45H246.4L246.47 174.07C246.86 173.25 247.45 172.58 248.23 172.06C249.01 171.54 249.93 171.28 250.98 171.28C252.66 171.28 254.02 171.86 255.06 173.03C256.1 174.2 256.63 175.9 256.63 178.14V185.02H254.76V178.14C254.76 176.51 254.37 175.27 253.6 174.42C252.83 173.56 251.84 173.14 250.64 173.14C249.44 173.14 248.45 173.56 247.68 174.41C246.91 175.26 246.52 176.5 246.52 178.15V185.03H244.64L244.65 185.02Z" fill="#999999"/>
<path d="M257.3 171.45H259.2L259.4 167.01H261.03V171.45H264.36V173.18H261.03V180.26C261.03 181.26 261.26 182.04 261.72 182.58C262.18 183.12 262.81 183.39 263.62 183.39C264.03 183.39 264.39 183.32 264.7 183.19L265.19 184.89C264.7 185.1 264.11 185.21 263.41 185.21C262.16 185.21 261.14 184.79 260.34 183.96C259.54 183.13 259.14 181.9 259.14 180.27V173.17H257.29V171.44L257.3 171.45Z" fill="#999999"/>
<path d="M267.02 181.61C267.48 182.15 268.14 182.59 268.99 182.93C269.84 183.27 270.74 183.43 271.68 183.43C272.7 183.43 273.53 183.22 274.18 182.81C274.83 182.4 275.15 181.85 275.15 181.16C275.15 180.57 274.84 180.09 274.23 179.74C273.61 179.39 272.86 179.12 271.98 178.94C271.1 178.76 270.22 178.55 269.34 178.31C268.46 178.07 267.71 177.67 267.1 177.1C266.48 176.53 266.18 175.8 266.18 174.89C266.18 173.82 266.64 172.95 267.57 172.27C268.5 171.6 269.72 171.26 271.23 171.26C273.58 171.26 275.37 172 276.61 173.48L275.43 174.66C274.95 174.08 274.33 173.66 273.57 173.38C272.81 173.1 272.04 172.96 271.29 172.96C270.35 172.96 269.58 173.13 268.97 173.48C268.36 173.83 268.06 174.3 268.06 174.91C268.06 175.44 268.37 175.86 268.99 176.17C269.61 176.48 270.36 176.73 271.25 176.92C272.14 177.11 273.02 177.33 273.9 177.57C274.78 177.81 275.53 178.23 276.15 178.82C276.77 179.4 277.07 180.16 277.07 181.1C277.07 182.43 276.55 183.45 275.5 184.15C274.46 184.85 273.18 185.2 271.66 185.2C270.59 185.2 269.51 185.01 268.43 184.62C267.35 184.23 266.44 183.64 265.72 182.83L267.03 181.6L267.02 181.61Z" fill="#999999"/>
<path d="M238.66 0C215.57 0 196.78 18.79 196.78 41.88C196.78 51.71 192.95 60.94 186.01 67.89C179.06 74.84 169.83 78.66 160 78.66C150.17 78.66 140.94 74.83 133.99 67.89C127.04 60.94 123.21 51.7 123.21 41.88C123.21 32.06 127.04 22.82 133.99 15.87C140.93 8.93 150.16 5.11 160 5.11C169.84 5.11 179.08 8.93 186.01 15.87L186.37 16.23L189.97 12.63L189.61 12.27C173.28 -4.06 146.71 -4.06 130.39 12.27C122.48 20.18 118.13 30.7 118.13 41.88C118.13 51.71 114.3 60.94 107.35 67.89C100.4 74.84 91.16 78.66 81.34 78.66C71.52 78.66 62.27 74.83 55.33 67.89C48.38 60.94 44.56 51.7 44.56 41.88C44.56 32.06 48.39 22.82 55.33 15.87C69.67 1.53 93.01 1.53 107.35 15.87L107.71 16.23L111.31 12.63L110.95 12.27C103.05 4.37 92.53 0.02 81.33 0.02C70.13 0.02 59.62 4.37 51.72 12.27C43.81 20.18 39.46 30.7 39.46 41.88C39.46 53.06 43.82 63.58 51.72 71.49C59.63 79.4 70.15 83.76 81.33 83.76C92.51 83.76 103.03 79.4 110.94 71.49C115.31 67.12 118.57 62.01 120.66 56.29C122.75 62.02 126.01 67.13 130.38 71.49C138.29 79.4 148.81 83.76 159.99 83.76C171.17 83.76 181.69 79.4 189.6 71.49C193.97 67.12 197.24 62 199.33 56.26C205.37 72.77 220.99 83.75 238.65 83.75C261.74 83.75 280.53 64.96 280.53 41.87C280.53 18.78 261.75 0 238.66 0ZM275.45 41.88C275.45 62.16 258.95 78.67 238.66 78.67C218.37 78.67 201.88 62.17 201.87 41.88C201.87 21.6 218.37 5.09 238.66 5.09C258.95 5.09 275.45 21.59 275.45 41.88Z" fill="#999999"/>
<path d="M83.85 39.33H0V44.38H83.85V39.33Z" fill="#4CBD94"/>
</g>
<defs>
<clipPath id="clip0_267_170">
<rect width="280.54" height="185.22" fill="white"/>
</clipPath>
</defs>
</svg>
